<?xml version="1.0" encoding="UTF-8"?>
<svg version="1.1" viewBox="0 0 2000 2000" width="500" height="500" xmlns="http://www.w3.org/2000/svg">
<path transform="translate(1029,518)" d="m0 0 15 2 12 6 9 8 6 10 5 13 3 14 1 13v27l-2 29-6 36-7 33-7 25-10 29-7 17-8 14-7 6-8 2-9-3-7-7-7-14-3-9v-22l8-28 12-36 7-24 8-32 3-16v-28l-12 3-16 8-17 10-21 14-14 9-17 12-19 14-11 9-13 10-14 12-14 11-14 12-11 9-14 12-14 11-14 12-11 9-14 12-13 11-11 9-12 10-14 11-15 12-14 11-16 12-11 9-13 11-10 8-13 11-9 7-10 9-14 11-14 12-11 9-14 12-5 6 15-4 26-5 39-8 46-8 47-7 43-5 46-4 21-1h93l39 3 31 4 31 7 36 10 15 6 16 8 18 10 7 5h2l5-24 8-47 3-9 6-8 8-4h11l7 3 5 5 4 7 1 5v45l-1 18-3 16-1 2 30-15 23-7 6-1h11l8 3 7 6 4 10 1 4 1 16v20l-2 17-7 30-7 25-5 16 4-2 14-21 13-18 7-11 12-19 13-21 10-18 8-13 13-22 8-12 14-19 8-8 9-4h12l6 3 8 9 6 16 2 13v39l-2 15 4-2 13-22 7-10 18-30 25-37 16-21 12-13 17-17 11-7 11-4h12l12 5 10 8 14 14 9 11 14 15 11 9 14 7 17 5 17 2h14l23-2 32-8 17-7 24-11 23-13 16-9 21-14 13-12 7-8 8-11 4-2 3 5 2 7 1 16-2 18-3 10-8 16-8 11-9 10-12 13-15 13-16 12-23 14-18 10-19 7-25 7-19 3-10 1h-21l-27-4-24-8-13-7-13-12-15-15-13-17-11-12-5-4h-5l-7 6h-2l-2 4-11 11-11 14-11 15-14 20-20 30-15 24-18 28-16 25-10 14-8 7-7 3h-11l-10-4-8-8-8-16-4-24-1-9v-19l1-6h-3l-10 18-10 17-13 22-10 15-10 16-22 33-21 31-8 12-11 16-12 16-9 10-9 8-10 4h-7l-8-3-6-5-8-14-3-11v-16l5-25 14-48 6-16 12-33 13-31 5-14 5-22 1-16-4-6-9 1-17 9-13 9-13 11 6 13 3 9 3 30v20l-4 20-9 22-8 16-8 19-6 23-8 41-8 40-10 38-14 46-14 40-8 21-11 26-11 25-7 12-6 11-11 21-12 19-13 20-10 13-8 9-7 8-10 10-10 8-16 11-17 9-12 4-5 1h-27l-11-3-12-6-13-11-8-9-12-19-5-11-5-16-3-17v-34l4-41 3-19 6-26 4-10-27 12-20 9-21 9-26 11-38 13-27 9-23 6-37 8-37 7-55 7-12 1h-46l-16-2-27-5-16-5-17-7-17-8-16-11-13-11-12-12-11-15-9-15-7-15-8-20-5-16-3-19v-35l3-19 5-17 8-18 8-16 13-19 9-10 13-13 19-14 15-9 10-4 9-2h16l6 3-1 8-5 11-8 11-8 8-9 11-13 16-8 13-10 17-10 21-4 19v25l4 13 6 11 8 11 8 8 11 8 16 9 27 9 25 5h73l44-7 25-5 32-7 48-14 26-8 36-13 24-9 33-14 20-8 58-29 23-12 15-27 19-29 9-13 14-19 10-14 12-16 11-14 12-14 7-8 9-9 7-8 15-14 16-16 8-7 12-11 11-8 14-11v-2l-23-12-19-8-21-7-19-4-16-2-10-2-30-3-32-3h-57l-53 3-43 3-62 7-39 6-70 14-53 8-15 2-13 1h-20l-17-4-8-4-7-6-6-11-4-14-1-13 2-15 4-13 6-11 7-9 13-15 13-12 8-7 12-11 8-7 13-12 8-7 14-12 13-10 12-10 14-11 13-11 16-12 11-10 14-10 12-10 15-11 18-14 25-20 16-13 28-22 10-9 13-10 14-12 17-13 16-13 15-11 13-10 16-12 19-14 15-11 16-11 19-12 17-10 21-9 16-5zm78 550-8 6-9 8-7 8-16 16-7 8-12 13-10 11-7 8-11 13-12 16-11 14-13 19-6 9-1 4 5-1 9-7 17-11 13-9 19-14 11-9 14-12 10-9 15-15 8-18 10-42v-6zm-44 193-12 11-8 7-16 13-18 13-36 24-17 10-24 14-21 11-15 10-5 8-13 42-6 23-5 27v34l4 24 4 13 4 8 9 8 4 2h10l16-6 13-9 3-3v-2l3-1 7-8 10-12 12-17 12-19 12-21 8-16 14-30 9-23 15-40 10-30 16-50 4-12v-3z" fill="#FCFDFD"/>
<path transform="translate(1378,78)" d="m0 0h228l19 3 16 5 14 6 15 10 10 9 6 7 8 16 5 14 3 12 1 7 1 17v59l-1 265v207l-1 25-2 15-1 17-2 4-2-6-4-48-1-77-1-124h-2l-1 17-1 32-2 26-3 22-2 4h-2l-1-9v-42l-2 1-5 24-3 22-2 24-4 1-2-4-3-42-1 2-2 24h-3l-1-3-1-48-2-7-3-5-1-30v-67h-3l-3 17-2 3h-2v-212l1-28v-33l-2-41-6-9-3-2h-16l-27 1-134 3 4 2 36 3 14 2 30 2 17 2v2l-66 1h-553l-500-2v139l-1 320-1 5v58l-1 26v47l1 62v130l-1 110-1 25-4-1-3-26-1-5-1-21-2-155-4-75-3 3-1 5-1 28-1 164-1 5-2-1-3-34-2-25-6 1v-41l-1-27-1-60-2-42-2-15-1-9h-2v84l-2-3-2-7h-3v59l-2 19-3 16-1 51-2 16-3 63-1 10-2-1-1-7-1-46-2-35-3-10v-7l2-11v-19l-3-29-1-18-1-34-5-70-4-23-4-40-2-29v-57l1-115v-46l-1-91v-121l2-99 3-15 5-12 8-13 8-10 11-11 14-11 16-8 11-3 7-1h192l70-2h425l30 1h91l21-1z" fill="#FCFDFD"/>
<path transform="translate(1611,1042)" d="m0 0h5l2 30 1 3 1 43 1 25 1 10 1 89 2 45 3-1 1-7 2-48 1-68 3-47h3v52l8 1 1 98 2 42 3 40v5l2-1 2-102 3 2 3 11h2v-52l1-6 1-40 6-99 2-1 1 2 1 21 2 10 1 1 2 24 2 37 1 14-1 16 2 20 2 35 3 21v-53l5 2 2 3 1 17v69l3 57 2 85v25l-1 45-1 184v79l1 41-2 22-5 16-10 19-8 10-10 8-11 7-11 5-11 3-8 1h-54l-35-1h-71l-51 2-113 1-66 1h-61l-42-1h-86l-3 1-621-1-22-2-14-3-16-8-11-8-10-9-8-9-8-12-3-8-3-32-1-79v-60l1-96 3-77 1-18 1-7 3 3 1 2 2 33 1 68v44l2 1 4-33 2-24 4-20 3-1 1 44 3 1 2-23 4-29 1-11 4 1 1 5 1 25 2 18v6h3l3-28 2-13 3 1 2 18 2 56v71h3l2-15 3-5 3 1 1 35 1 95 2 9 5 6 14 7 9 1 31-1 14-1 37-1v-2l-17-4-12-1-49-2-15-2v-3h652l374 3h155l3-1 1-3v-35l-2-43v-51l1-42 1-181 2-76v-192l1-120 1-33z" fill="#FCFDFD"/>
<path transform="translate(1190,727)" d="m0 0h12l13 4 8 7 5 9 1 4v8l-7 12-10 9-9 7-8 7-5 6-7 6-5 5-4 2h-14l-8-5-7-9-4-8-2-7v-11l4-12 6-11 9-10 9-6 10-4z" fill="#FCFDFD"/>
<path transform="translate(1632,600)" d="m0 0h2l1 25h-2l-1-10z" fill="#FCFDFD"/>
</svg>
